<svg width="120" height="120" viewBox="0 0 120 120" fill="none" xmlns="http://www.w3.org/2000/svg">
<path id="Flower" fill-rule="evenodd" clip-rule="evenodd" d="M76.6138 33.7988C111.33 -2.55621 145.209 51.2191 93.3442 59.929C145.209 69.0179 110.912 122.414 76.6138 86.0589C94.1808 131.503 26.0034 131.124 43.5708 86.0589C8.85453 122.414 -25.025 69.0179 26.84 59.929C-25.4433 51.2191 8.85453 -2.17752 43.5708 33.7988C25.5852 -11.2663 94.1808 -11.2663 76.6138 33.7988ZM59.8828 53.1125C64.0659 53.1125 67.83 56.1421 67.83 59.929C67.83 63.7159 64.0659 67.1244 59.8828 67.1244C55.7004 67.1244 52.354 63.7159 52.354 59.929C52.354 56.1421 55.7004 53.1125 59.8828 53.1125Z" fill="white"/>
</svg>
